<mxfile host="app.diagrams.net" modified="2024-05-13T13:01:08.774Z" agent="Mozilla/5.0 (Windows NT 10.0; Win64; x64) AppleWebKit/537.36 (KHTML, like Gecko) Chrome/124.0.0.0 Safari/537.36 Edg/124.0.0.0" etag="MprqeezjbhguRr__PHG9" version="24.4.0" type="github">
  <diagram name="Page-1" id="0783ab3e-0a74-02c8-0abd-f7b4e66b4bec">
    <mxGraphModel dx="715" dy="403" grid="1" gridSize="10" guides="1" tooltips="1" connect="1" arrows="1" fold="1" page="1" pageScale="1" pageWidth="850" pageHeight="1100" background="none" math="0" shadow="0">
      <root>
        <mxCell id="0" />
        <mxCell id="1" parent="0" />
        <mxCell id="oJ24R1BPleVEDtxCF9HJ-1" value="Start" style="ellipse;html=1;shape=startState;fillColor=#000000;strokeColor=#ff0000;fontColor=#FFFFFF;" vertex="1" parent="1">
          <mxGeometry x="380" width="40" height="40" as="geometry" />
        </mxCell>
        <mxCell id="oJ24R1BPleVEDtxCF9HJ-2" value="" style="edgeStyle=orthogonalEdgeStyle;html=1;verticalAlign=bottom;endArrow=open;endSize=8;strokeColor=#ff0000;rounded=0;entryX=0.5;entryY=0;entryDx=0;entryDy=0;" edge="1" source="oJ24R1BPleVEDtxCF9HJ-1" parent="1" target="oJ24R1BPleVEDtxCF9HJ-3">
          <mxGeometry relative="1" as="geometry">
            <mxPoint x="400" y="110" as="targetPoint" />
            <Array as="points" />
          </mxGeometry>
        </mxCell>
        <mxCell id="oJ24R1BPleVEDtxCF9HJ-6" style="edgeStyle=orthogonalEdgeStyle;rounded=0;orthogonalLoop=1;jettySize=auto;html=1;exitX=0.5;exitY=1;exitDx=0;exitDy=0;entryX=0.5;entryY=0;entryDx=0;entryDy=0;" edge="1" parent="1" source="oJ24R1BPleVEDtxCF9HJ-3" target="oJ24R1BPleVEDtxCF9HJ-5">
          <mxGeometry relative="1" as="geometry" />
        </mxCell>
        <mxCell id="oJ24R1BPleVEDtxCF9HJ-3" value="Überprüfen, ob Projektberichte vorhanden" style="rounded=1;whiteSpace=wrap;html=1;" vertex="1" parent="1">
          <mxGeometry x="340" y="60" width="120" height="60" as="geometry" />
        </mxCell>
        <mxCell id="oJ24R1BPleVEDtxCF9HJ-13" style="edgeStyle=orthogonalEdgeStyle;rounded=0;orthogonalLoop=1;jettySize=auto;html=1;exitX=0.5;exitY=1;exitDx=0;exitDy=0;entryX=0.5;entryY=0;entryDx=0;entryDy=0;" edge="1" parent="1" source="oJ24R1BPleVEDtxCF9HJ-4" target="oJ24R1BPleVEDtxCF9HJ-12">
          <mxGeometry relative="1" as="geometry" />
        </mxCell>
        <mxCell id="oJ24R1BPleVEDtxCF9HJ-4" value="Überprüfe ob Parameter vom Nutzer übergeben wurden" style="rounded=1;whiteSpace=wrap;html=1;fontSize=11;" vertex="1" parent="1">
          <mxGeometry x="340" y="240" width="120" height="60" as="geometry" />
        </mxCell>
        <mxCell id="oJ24R1BPleVEDtxCF9HJ-8" value="Keine Berichte vorhanden" style="edgeStyle=orthogonalEdgeStyle;rounded=0;orthogonalLoop=1;jettySize=auto;html=1;exitX=1;exitY=0.5;exitDx=0;exitDy=0;entryX=0;entryY=0.5;entryDx=0;entryDy=0;fontSize=6;" edge="1" parent="1" source="oJ24R1BPleVEDtxCF9HJ-5" target="oJ24R1BPleVEDtxCF9HJ-7">
          <mxGeometry x="-0.1429" y="25" relative="1" as="geometry">
            <mxPoint as="offset" />
          </mxGeometry>
        </mxCell>
        <mxCell id="oJ24R1BPleVEDtxCF9HJ-9" value="Berichte gefunden" style="edgeStyle=orthogonalEdgeStyle;rounded=0;orthogonalLoop=1;jettySize=auto;html=1;exitX=0.5;exitY=1;exitDx=0;exitDy=0;entryX=0.5;entryY=0;entryDx=0;entryDy=0;fontSize=6;" edge="1" parent="1" source="oJ24R1BPleVEDtxCF9HJ-5" target="oJ24R1BPleVEDtxCF9HJ-4">
          <mxGeometry y="30" relative="1" as="geometry">
            <mxPoint as="offset" />
          </mxGeometry>
        </mxCell>
        <mxCell id="oJ24R1BPleVEDtxCF9HJ-5" value="" style="rhombus;whiteSpace=wrap;html=1;" vertex="1" parent="1">
          <mxGeometry x="370" y="150" width="60" height="50" as="geometry" />
        </mxCell>
        <mxCell id="oJ24R1BPleVEDtxCF9HJ-7" value="Fehlermeldung" style="rounded=1;whiteSpace=wrap;html=1;" vertex="1" parent="1">
          <mxGeometry x="500" y="162.5" width="100" height="25" as="geometry" />
        </mxCell>
        <mxCell id="oJ24R1BPleVEDtxCF9HJ-19" style="edgeStyle=orthogonalEdgeStyle;rounded=0;orthogonalLoop=1;jettySize=auto;html=1;exitX=0.5;exitY=1;exitDx=0;exitDy=0;entryX=0.5;entryY=0;entryDx=0;entryDy=0;" edge="1" parent="1" source="oJ24R1BPleVEDtxCF9HJ-10" target="oJ24R1BPleVEDtxCF9HJ-17">
          <mxGeometry relative="1" as="geometry" />
        </mxCell>
        <mxCell id="oJ24R1BPleVEDtxCF9HJ-10" value="Verarbeiten der Parameter" style="rounded=1;whiteSpace=wrap;html=1;" vertex="1" parent="1">
          <mxGeometry x="340" y="390" width="120" height="60" as="geometry" />
        </mxCell>
        <mxCell id="oJ24R1BPleVEDtxCF9HJ-14" value="Kein Parameter gefunden" style="edgeStyle=orthogonalEdgeStyle;rounded=0;orthogonalLoop=1;jettySize=auto;html=1;exitX=1;exitY=0.5;exitDx=0;exitDy=0;entryX=0.5;entryY=0;entryDx=0;entryDy=0;" edge="1" parent="1" source="oJ24R1BPleVEDtxCF9HJ-12" target="oJ24R1BPleVEDtxCF9HJ-16">
          <mxGeometry relative="1" as="geometry">
            <mxPoint x="490" y="345" as="targetPoint" />
          </mxGeometry>
        </mxCell>
        <mxCell id="oJ24R1BPleVEDtxCF9HJ-15" style="edgeStyle=orthogonalEdgeStyle;rounded=0;orthogonalLoop=1;jettySize=auto;html=1;exitX=0.5;exitY=1;exitDx=0;exitDy=0;" edge="1" parent="1" source="oJ24R1BPleVEDtxCF9HJ-12" target="oJ24R1BPleVEDtxCF9HJ-10">
          <mxGeometry relative="1" as="geometry" />
        </mxCell>
        <mxCell id="oJ24R1BPleVEDtxCF9HJ-12" value="" style="rhombus;whiteSpace=wrap;html=1;" vertex="1" parent="1">
          <mxGeometry x="370" y="320" width="60" height="50" as="geometry" />
        </mxCell>
        <mxCell id="oJ24R1BPleVEDtxCF9HJ-20" style="edgeStyle=orthogonalEdgeStyle;rounded=0;orthogonalLoop=1;jettySize=auto;html=1;exitX=0.5;exitY=1;exitDx=0;exitDy=0;entryX=1;entryY=0.5;entryDx=0;entryDy=0;" edge="1" parent="1" source="oJ24R1BPleVEDtxCF9HJ-16" target="oJ24R1BPleVEDtxCF9HJ-17">
          <mxGeometry relative="1" as="geometry" />
        </mxCell>
        <mxCell id="oJ24R1BPleVEDtxCF9HJ-16" value="Verwenden der Standardparameter" style="rounded=1;whiteSpace=wrap;html=1;" vertex="1" parent="1">
          <mxGeometry x="500" y="390" width="120" height="60" as="geometry" />
        </mxCell>
        <mxCell id="oJ24R1BPleVEDtxCF9HJ-22" style="edgeStyle=orthogonalEdgeStyle;rounded=0;orthogonalLoop=1;jettySize=auto;html=1;exitX=0.5;exitY=1;exitDx=0;exitDy=0;entryX=0.5;entryY=0;entryDx=0;entryDy=0;" edge="1" parent="1" source="oJ24R1BPleVEDtxCF9HJ-17" target="oJ24R1BPleVEDtxCF9HJ-21">
          <mxGeometry relative="1" as="geometry" />
        </mxCell>
        <mxCell id="oJ24R1BPleVEDtxCF9HJ-17" value="" style="rhombus;whiteSpace=wrap;html=1;" vertex="1" parent="1">
          <mxGeometry x="370" y="470" width="60" height="50" as="geometry" />
        </mxCell>
        <mxCell id="oJ24R1BPleVEDtxCF9HJ-18" value="Parameter gefunden" style="text;html=1;align=center;verticalAlign=middle;whiteSpace=wrap;rounded=0;fontSize=11;" vertex="1" parent="1">
          <mxGeometry x="310" y="350" width="60" height="30" as="geometry" />
        </mxCell>
        <mxCell id="oJ24R1BPleVEDtxCF9HJ-21" value="Einlesen aller der Projektberichte" style="rounded=1;whiteSpace=wrap;html=1;" vertex="1" parent="1">
          <mxGeometry x="340" y="540" width="120" height="60" as="geometry" />
        </mxCell>
        <mxCell id="oJ24R1BPleVEDtxCF9HJ-23" value="Formatieren der Projektberichte" style="rounded=1;whiteSpace=wrap;html=1;" vertex="1" parent="1">
          <mxGeometry x="340" y="630" width="120" height="60" as="geometry" />
        </mxCell>
        <mxCell id="oJ24R1BPleVEDtxCF9HJ-24" style="edgeStyle=orthogonalEdgeStyle;rounded=0;orthogonalLoop=1;jettySize=auto;html=1;exitX=0.5;exitY=1;exitDx=0;exitDy=0;entryX=0.506;entryY=-0.059;entryDx=0;entryDy=0;entryPerimeter=0;" edge="1" parent="1" source="oJ24R1BPleVEDtxCF9HJ-21" target="oJ24R1BPleVEDtxCF9HJ-23">
          <mxGeometry relative="1" as="geometry" />
        </mxCell>
        <mxCell id="oJ24R1BPleVEDtxCF9HJ-25" value="" style="shape=line;html=1;strokeWidth=6;strokeColor=#000000;labelBackgroundColor=default;" vertex="1" parent="1">
          <mxGeometry x="300" y="720" width="200" height="10" as="geometry" />
        </mxCell>
        <mxCell id="oJ24R1BPleVEDtxCF9HJ-26" value="" style="edgeStyle=orthogonalEdgeStyle;html=1;verticalAlign=bottom;endArrow=open;endSize=8;strokeColor=#000000;rounded=0;entryX=0.5;entryY=0;entryDx=0;entryDy=0;" edge="1" parent="1" target="oJ24R1BPleVEDtxCF9HJ-29">
          <mxGeometry relative="1" as="geometry">
            <mxPoint x="320" y="800" as="targetPoint" />
            <mxPoint x="320.02857142857147" y="730" as="sourcePoint" />
          </mxGeometry>
        </mxCell>
        <mxCell id="oJ24R1BPleVEDtxCF9HJ-27" value="" style="edgeStyle=orthogonalEdgeStyle;html=1;verticalAlign=bottom;endArrow=open;endSize=8;strokeColor=#000000;rounded=0;" edge="1" parent="1">
          <mxGeometry relative="1" as="geometry">
            <mxPoint x="480" y="800" as="targetPoint" />
            <mxPoint x="480.02857142857147" y="730" as="sourcePoint" />
          </mxGeometry>
        </mxCell>
        <mxCell id="oJ24R1BPleVEDtxCF9HJ-28" style="edgeStyle=orthogonalEdgeStyle;rounded=0;orthogonalLoop=1;jettySize=auto;html=1;exitX=0.5;exitY=1;exitDx=0;exitDy=0;entryX=0.501;entryY=0.204;entryDx=0;entryDy=0;entryPerimeter=0;" edge="1" parent="1" source="oJ24R1BPleVEDtxCF9HJ-23" target="oJ24R1BPleVEDtxCF9HJ-25">
          <mxGeometry relative="1" as="geometry" />
        </mxCell>
        <mxCell id="oJ24R1BPleVEDtxCF9HJ-29" value="Finden des Berichtsdatums" style="rounded=1;whiteSpace=wrap;html=1;" vertex="1" parent="1">
          <mxGeometry x="260" y="800" width="120" height="60" as="geometry" />
        </mxCell>
        <mxCell id="oJ24R1BPleVEDtxCF9HJ-30" value="Finden der auszuwertenden Daten" style="rounded=1;whiteSpace=wrap;html=1;" vertex="1" parent="1">
          <mxGeometry x="420" y="800" width="120" height="60" as="geometry" />
        </mxCell>
        <mxCell id="oJ24R1BPleVEDtxCF9HJ-38" style="edgeStyle=orthogonalEdgeStyle;rounded=0;orthogonalLoop=1;jettySize=auto;html=1;entryX=0.5;entryY=0;entryDx=0;entryDy=0;" edge="1" parent="1" source="oJ24R1BPleVEDtxCF9HJ-31" target="oJ24R1BPleVEDtxCF9HJ-37">
          <mxGeometry relative="1" as="geometry" />
        </mxCell>
        <mxCell id="oJ24R1BPleVEDtxCF9HJ-31" value="" style="shape=line;html=1;strokeWidth=6;strokeColor=#000000;" vertex="1" parent="1">
          <mxGeometry x="300" y="910" width="200" height="10" as="geometry" />
        </mxCell>
        <mxCell id="oJ24R1BPleVEDtxCF9HJ-35" style="edgeStyle=orthogonalEdgeStyle;rounded=0;orthogonalLoop=1;jettySize=auto;html=1;exitX=0.5;exitY=1;exitDx=0;exitDy=0;" edge="1" parent="1" source="oJ24R1BPleVEDtxCF9HJ-29">
          <mxGeometry relative="1" as="geometry">
            <mxPoint x="320" y="910" as="targetPoint" />
          </mxGeometry>
        </mxCell>
        <mxCell id="oJ24R1BPleVEDtxCF9HJ-36" style="edgeStyle=orthogonalEdgeStyle;rounded=0;orthogonalLoop=1;jettySize=auto;html=1;entryX=0.899;entryY=0.269;entryDx=0;entryDy=0;entryPerimeter=0;" edge="1" parent="1" source="oJ24R1BPleVEDtxCF9HJ-30" target="oJ24R1BPleVEDtxCF9HJ-31">
          <mxGeometry relative="1" as="geometry" />
        </mxCell>
        <mxCell id="oJ24R1BPleVEDtxCF9HJ-40" style="edgeStyle=orthogonalEdgeStyle;rounded=0;orthogonalLoop=1;jettySize=auto;html=1;entryX=0.5;entryY=0;entryDx=0;entryDy=0;" edge="1" parent="1" source="oJ24R1BPleVEDtxCF9HJ-37" target="oJ24R1BPleVEDtxCF9HJ-39">
          <mxGeometry relative="1" as="geometry" />
        </mxCell>
        <mxCell id="oJ24R1BPleVEDtxCF9HJ-37" value="Speichere beides zusammengehörig" style="rounded=1;whiteSpace=wrap;html=1;" vertex="1" parent="1">
          <mxGeometry x="340" y="950" width="120" height="60" as="geometry" />
        </mxCell>
        <mxCell id="oJ24R1BPleVEDtxCF9HJ-39" value="Eventuelle erforderliche Formatierung der Daten vornehmen" style="rounded=1;whiteSpace=wrap;html=1;" vertex="1" parent="1">
          <mxGeometry x="340" y="1040" width="120" height="60" as="geometry" />
        </mxCell>
        <mxCell id="oJ24R1BPleVEDtxCF9HJ-41" value="" style="rounded=1;whiteSpace=wrap;html=1;" vertex="1" parent="1">
          <mxGeometry x="340" y="1120" width="120" height="60" as="geometry" />
        </mxCell>
      </root>
    </mxGraphModel>
  </diagram>
</mxfile>
